{"accessors":[{"bufferView":2,"componentType":5126,"count":1970,"max":[1.0403000116348267,-0.9900000095367432,0.6633999943733215],"min":[-0.014700000174343586,-2.0450000762939453,0.029899999499320984],"type":"VEC3","byteOffset":0},{"bufferView":2,"byteOffset":23640,"componentType":5126,"count":1970,"max":[1,1,0.999879002571106],"min":[-1,-0.999879002571106,-1],"type":"VEC3"},{"bufferView":3,"componentType":5126,"count":1970,"max":[1,1,0.7747859358787537,1],"min":[-1,-1,-0.7838702201843262,1],"type":"VEC4","byteOffset":0},{"bufferView":1,"componentType":5126,"count":1970,"max":[2.6138999462127686,2.6138999462127686],"min":[-1.6138999462127686,-1.5960999727249146],"type":"VEC2","byteOffset":0},{"bufferView":0,"componentType":5125,"count":9894,"max":[1969],"min":[0],"type":"SCALAR","byteOffset":0},{"bufferView":2,"byteOffset":47280,"componentType":5126,"count":235,"max":[0.10970000177621841,-0.9950000047683716,0.010900000110268593],"min":[-0.009700000286102295,-1.1151000261306763,0.00989999994635582],"type":"VEC3"},{"bufferView":2,"byteOffset":50100,"componentType":5126,"count":235,"max":[0.9995589852333069,0.9995546936988831,0.9993081092834473],"min":[-0.9995546936988831,-0.9995589852333069,-0.9995589852333069],"type":"VEC3"},{"bufferView":3,"byteOffset":31520,"componentType":5126,"count":235,"max":[0,0,0,1],"min":[0,0,0,1],"type":"VEC4"},{"bufferView":1,"byteOffset":15760,"componentType":5126,"count":235,"max":[0,0],"min":[0,0],"type":"VEC2"},{"bufferView":0,"byteOffset":39576,"componentType":5125,"count":426,"max":[234],"min":[0],"type":"SCALAR"},{"bufferView":2,"byteOffset":52920,"componentType":5126,"count":240,"max":[1.0353000164031982,-0.9950000047683716,0.010900000110268593],"min":[0.9158999919891357,-1.1151000261306763,0.00989999994635582],"type":"VEC3"},{"bufferView":2,"byteOffset":55800,"componentType":5126,"count":240,"max":[0.9995546936988831,0.9995546936988831,0.9993081092834473],"min":[-0.9995589852333069,-0.9995589852333069,-0.9995589852333069],"type":"VEC3"},{"bufferView":3,"byteOffset":35280,"componentType":5126,"count":240,"max":[0,0,0,1],"min":[0,0,0,1],"type":"VEC4"},{"bufferView":1,"byteOffset":17640,"componentType":5126,"count":240,"max":[0,0],"min":[0,0],"type":"VEC2"},{"bufferView":0,"byteOffset":41280,"componentType":5125,"count":435,"max":[239],"min":[0],"type":"SCALAR"},{"bufferView":2,"byteOffset":58680,"componentType":5126,"count":233,"max":[0.10970000177621841,-1.919800043106079,0.010900000110268593],"min":[-0.009700000286102295,-2.0399999618530273,0.00989999994635582],"type":"VEC3"},{"bufferView":2,"byteOffset":61476,"componentType":5126,"count":233,"max":[0.9995589852333069,0.9995589852333069,0.9993081092834473],"min":[-0.9995546936988831,-0.9995546936988831,-0.9995589852333069],"type":"VEC3"},{"bufferView":3,"byteOffset":39120,"componentType":5126,"count":233,"max":[0,0,0,1],"min":[0,0,0,1],"type":"VEC4"},{"bufferView":1,"byteOffset":19560,"componentType":5126,"count":233,"max":[0,0],"min":[0,0],"type":"VEC2"},{"bufferView":0,"byteOffset":43020,"componentType":5125,"count":417,"max":[232],"min":[0],"type":"SCALAR"},{"bufferView":2,"byteOffset":64272,"componentType":5126,"count":228,"max":[1.0353000164031982,-1.919800043106079,0.010900000110268593],"min":[0.9158999919891357,-2.0399999618530273,0.00989999994635582],"type":"VEC3"},{"bufferView":2,"byteOffset":67008,"componentType":5126,"count":228,"max":[0.9995546936988831,0.9995589852333069,0.9993081092834473],"min":[-0.9995589852333069,-0.9995546936988831,-0.9995589852333069],"type":"VEC3"},{"bufferView":3,"byteOffset":42848,"componentType":5126,"count":228,"max":[0,0,0,1],"min":[0,0,0,1],"type":"VEC4"},{"bufferView":1,"byteOffset":21424,"componentType":5126,"count":228,"max":[0,0],"min":[0,0],"type":"VEC2"},{"bufferView":0,"byteOffset":44688,"componentType":5125,"count":399,"max":[227],"min":[0],"type":"SCALAR"},{"bufferView":2,"byteOffset":69744,"componentType":5126,"count":2227,"max":[1.0353000164031982,-0.9950000047683716,0.029899999499320984],"min":[-0.009700000286102295,-2.0399999618530273,0.010900000110268593],"type":"VEC3"},{"bufferView":2,"byteOffset":96468,"componentType":5126,"count":2227,"max":[0.9995589852333069,0.9995589852333069,0.9993081092834473],"min":[-0.9995589852333069,-0.9995589852333069,-0.9995589852333069],"type":"VEC3"},{"bufferView":3,"byteOffset":46496,"componentType":5126,"count":2227,"max":[0,0,0,1],"min":[0,0,0,1],"type":"VEC4"},{"bufferView":1,"byteOffset":23248,"componentType":5126,"count":2227,"max":[0,0],"min":[0,0],"type":"VEC2"},{"bufferView":0,"byteOffset":46284,"componentType":5125,"count":11910,"max":[2226],"min":[0],"type":"SCALAR"},{"bufferView":2,"byteOffset":123192,"componentType":5126,"count":2223,"max":[1.0353000164031982,-0.9950000047683716,0.029899999499320984],"min":[-0.009700000286102295,-2.0399999618530273,0.010900000110268593],"type":"VEC3"},{"bufferView":2,"byteOffset":149868,"componentType":5126,"count":2223,"max":[0.9995589852333069,0.9995589852333069,0.9993081092834473],"min":[-0.9995589852333069,-0.9995589852333069,-0.9995589852333069],"type":"VEC3"},{"bufferView":3,"byteOffset":82128,"componentType":5126,"count":2223,"max":[0,0,0,1],"min":[0,0,0,1],"type":"VEC4"},{"bufferView":1,"byteOffset":41064,"componentType":5126,"count":2223,"max":[0,0],"min":[0,0],"type":"VEC2"},{"bufferView":0,"byteOffset":93924,"componentType":5125,"count":11913,"max":[2222],"min":[0],"type":"SCALAR"},{"bufferView":2,"byteOffset":176544,"componentType":5126,"count":5186,"max":[0.7876999974250793,-1.2431999444961548,0.7598999738693237],"min":[0.23819999396800995,-1.3398000001907349,0.42250001430511475],"type":"VEC3"},{"bufferView":2,"byteOffset":238776,"componentType":5126,"count":5186,"max":[0.9999988079071045,0.9999973773956299,0.9999994039535522],"min":[-0.9999933242797852,-0.9999988079071045,-0.9999996423721313],"type":"VEC3"},{"bufferView":3,"byteOffset":117696,"componentType":5126,"count":5186,"max":[1,0.9999998211860657,0.8474143147468567,1],"min":[-1,-0.9999980330467224,-0.8404054045677185,-1],"type":"VEC4"},{"bufferView":1,"byteOffset":58848,"componentType":5126,"count":5186,"max":[0.7718999981880188,0.6653000116348267],"min":[0.2281000018119812,0.33660000562667847],"type":"VEC2"},{"bufferView":0,"byteOffset":141576,"componentType":5125,"count":27624,"max":[5185],"min":[0],"type":"SCALAR"},{"bufferView":2,"byteOffset":301008,"componentType":5126,"count":5182,"max":[0.7864000201225281,-1.2437000274658203,0.44190001487731934],"min":[0.23880000412464142,-2.0517001152038574,0.33309999108314514],"type":"VEC3"},{"bufferView":2,"byteOffset":363192,"componentType":5126,"count":5182,"max":[0.9999995231628418,0.9999955892562866,0.9999921321868896],"min":[-0.9999994039535522,-0.9999794960021973,-0.9999998807907104],"type":"VEC3"},{"bufferView":3,"byteOffset":200672,"componentType":5126,"count":5182,"max":[0.9999998211860657,1,0.8207751512527466,1],"min":[-0.9999994039535522,-1,-0.7995915412902832,1],"type":"VEC4"},{"bufferView":1,"byteOffset":100336,"componentType":5126,"count":5182,"max":[0.8985999822616577,0.7736999988555908],"min":[0.10140000283718109,0.23070000112056732],"type":"VEC2"},{"bufferView":0,"byteOffset":252072,"componentType":5125,"count":27618,"max":[5181],"min":[0],"type":"SCALAR"}],"asset":{"extras":{"author":"Zuo Modern (https://sketchfab.com/zuo)","license":"CC-BY-NC-ND-4.0 (http://creativecommons.org/licenses/by-nc-nd/4.0/)","source":"https://sketchfab.com/models/3252edb0d36347809e4af41f3b81841c","title":"Cartagena Arm Chair Espresso - 703654"},"generator":"Sketchfab-3.20.7","version":"2.0"},"bufferViews":[{"buffer":0,"byteLength":362544,"byteOffset":0,"name":"floatBufferViews","target":34963},{"buffer":0,"byteLength":141792,"byteOffset":362544,"byteStride":8,"name":"floatBufferViews","target":34962},{"buffer":0,"byteLength":425376,"byteOffset":504336,"byteStride":12,"name":"floatBufferViews","target":34962},{"buffer":0,"byteLength":283584,"byteOffset":929712,"byteStride":16,"name":"floatBufferViews","target":34962},{"buffer":0,"byteOffset":1213296,"byteLength":877},{"buffer":0,"byteOffset":1214176,"byteLength":569645},{"buffer":0,"byteOffset":1783824,"byteLength":119648}],"buffers":[{"byteLength":1903472,"uri":"data:application/octet-stream;base64,"}],"images":[{"bufferView":4,"mimeType":"image/jpeg"},{"bufferView":5,"mimeType":"image/jpeg"},{"bufferView":6,"mimeType":"image/jpeg"}],"materials":[{"doubleSided":true,"name":"METALOK","pbrMetallicRoughness":{"baseColorFactor":[1,1,1,1],"baseColorTexture":{"index":1,"texCoord":0},"metallicFactor":1,"roughnessFactor":0},"emissiveFactor":[0,0,0],"alphaMode":"OPAQUE"},{"doubleSided":true,"name":"RATAN","pbrMetallicRoughness":{"baseColorFactor":[1,1,1,1],"baseColorTexture":{"index":2,"texCoord":0},"metallicFactor":0,"roughnessFactor":1},"emissiveFactor":[0,0,0],"alphaMode":"OPAQUE"},{"doubleSided":true,"emissiveFactor":[0,0,0],"name":"TELA","pbrMetallicRoughness":{"baseColorFactor":[1,1,1,1],"baseColorTexture":{"index":0,"texCoord":0},"metallicFactor":0,"roughnessFactor":0.3531818274},"alphaMode":"OPAQUE"}],"meshes":[{"primitives":[{"attributes":{"NORMAL":1,"POSITION":0,"TANGENT":2,"TEXCOORD_0":3},"indices":4,"material":1,"mode":4}]},{"primitives":[{"attributes":{"NORMAL":6,"POSITION":5,"TANGENT":7,"TEXCOORD_0":8},"indices":9,"material":0,"mode":4}]},{"primitives":[{"attributes":{"NORMAL":11,"POSITION":10,"TANGENT":12,"TEXCOORD_0":13},"indices":14,"material":0,"mode":4}]},{"primitives":[{"attributes":{"NORMAL":16,"POSITION":15,"TANGENT":17,"TEXCOORD_0":18},"indices":19,"material":0,"mode":4}]},{"primitives":[{"attributes":{"NORMAL":21,"POSITION":20,"TANGENT":22,"TEXCOORD_0":23},"indices":24,"material":0,"mode":4}]},{"primitives":[{"attributes":{"NORMAL":26,"POSITION":25,"TANGENT":27,"TEXCOORD_0":28},"indices":29,"material":0,"mode":4}]},{"primitives":[{"attributes":{"NORMAL":31,"POSITION":30,"TANGENT":32,"TEXCOORD_0":33},"indices":34,"material":0,"mode":4}]},{"primitives":[{"attributes":{"NORMAL":36,"POSITION":35,"TANGENT":37,"TEXCOORD_0":38},"indices":39,"material":2,"mode":4}]},{"primitives":[{"attributes":{"NORMAL":41,"POSITION":40,"TANGENT":42,"TEXCOORD_0":43},"indices":44,"material":2,"mode":4}]}],"nodes":[{"children":[1],"name":"RootNode (gltf orientation matrix)","rotation":[-0.7071067811865475,0,0,0.7071067811865476],"translation":[0,0,0],"scale":[1,1,1]},{"children":[2],"name":"RootNode (model correction matrix)"},{"children":[3,4,5,6,7,8,9,10,11],"name":"703654.obj.cleaner.materialmerger.gles"},{"mesh":0,"name":""},{"mesh":1,"name":""},{"mesh":2,"name":""},{"mesh":3,"name":""},{"mesh":4,"name":""},{"mesh":5,"name":""},{"mesh":6,"name":""},{"mesh":7,"name":""},{"mesh":8,"name":""}],"samplers":[{"magFilter":9729,"minFilter":9987,"wrapS":10497,"wrapT":10497}],"scene":0,"scenes":[{"name":"OSG_Scene","nodes":[0]}],"textures":[{"sampler":0,"source":0},{"sampler":0,"source":1},{"sampler":0,"source":2}]}
